<?xml version="1.0" standalone="no"?><!DOCTYPE svg PUBLIC "-//W3C//DTD SVG 1.1//EN" "http://www.w3.org/Graphics/SVG/1.1/DTD/svg11.dtd"><svg class="icon" width="200px" height="199.80px" viewBox="0 0 1025 1024" version="1.1" xmlns="http://www.w3.org/2000/svg"><path d="M964.669057 497.955112l-444.329177 224.718205-459.650873-242.593517c-20.428928-12.76808-43.411471-2.553616-56.179551 20.428928-10.214464 22.982544-2.553616 48.518703 17.875312 61.286783l477.526184 250.254364c7.660848 2.553616 12.76808 5.107232 17.875312 5.107232 5.107232 0 12.76808-2.553616 15.321696-5.107232L997.866064 579.670823c20.428928-12.76808 28.089776-38.304239 20.428928-61.286783-5.107232-20.428928-30.643392-28.089776-53.625935-20.428928zM27.492 324.309227l477.526184 250.254364c7.660848 2.553616 12.76808 5.107232 17.875312 5.107232 5.107232 0 12.76808-2.553616 15.321696-5.107232l459.650872-232.379052c12.76808-7.660848 22.982544-22.982544 25.53616-40.857856 0-17.875312-7.660848-33.197007-22.982544-40.857855L538.215192 5.107232c-10.214464-7.660848-25.53616-7.660848-38.30424 0L27.492 245.147132c-12.76808 7.660848-22.982544 22.982544-25.53616 40.857856 2.553616 15.321696 12.76808 28.089776 25.53616 38.304239z m487.740648-232.379052l375.381546 206.842892L522.893496 485.187032 137.297486 283.451372l377.935162-191.521197z m449.436409 610.314214l-444.329177 224.718205-459.650873-240.039901c-20.428928-12.76808-43.411471-2.553616-56.179551 20.428928-10.214464 22.982544-2.553616 48.518703 17.875312 61.286783l477.526184 250.254364c7.660848 2.553616 12.76808 5.107232 17.875312 5.107232 5.107232 0 12.76808-2.553616 15.321696-5.107232L997.866064 783.9601c20.428928-12.76808 28.089776-38.304239 20.428928-61.286783-5.107232-20.428928-30.643392-30.643392-53.625935-20.428928z" /></svg>