<?xml version="1.0" standalone="no"?><!DOCTYPE svg PUBLIC "-//W3C//DTD SVG 1.1//EN" "http://www.w3.org/Graphics/SVG/1.1/DTD/svg11.dtd"><svg class="icon" width="200px" height="200.00px" viewBox="0 0 1024 1024" version="1.1" xmlns="http://www.w3.org/2000/svg"><path d="M836.440816 831.216327c-5.746939 0-12.016327-0.522449-18.285714-1.044898-132.702041-16.195918-236.146939-126.432653-235.62449-251.820409 0-22.465306-1.567347-52.244898-3.134694-76.277551-1.044898-18.285714-2.089796-33.436735-2.089796-43.363265 0-21.942857 13.061224-56.42449 21.420409-74.710204 13.583673-32.391837 36.04898-76.277551 75.755102-85.681633 40.228571-9.404082 80.979592 20.37551 108.146938 43.885715 119.640816 102.4 165.093878 238.236735 140.016327 415.346938-6.269388 47.542857-37.093878 73.665306-86.204082 73.665307z m-145.763265-493.191837c-2.089796 0-4.179592 0-6.269388 0.522449-15.673469 3.657143-31.346939 24.032653-47.020408 61.12653v0.522449c-10.44898 25.077551-17.763265 48.587755-17.763265 58.514286 0 8.359184 1.044898 23.510204 2.089796 40.75102 1.567347 24.555102 3.657143 55.379592 3.134694 79.412245-0.522449 103.967347 86.726531 196.440816 198.530612 210.02449 46.497959 5.746939 55.902041-16.718367 58.514286-37.093877 22.987755-164.04898-16.718367-284.212245-125.910205-377.730613-27.689796-24.032653-49.632653-36.04898-65.306122-36.048979zM187.559184 831.216327c-48.587755 0-79.934694-26.122449-86.726531-73.665307-25.077551-177.110204 20.897959-312.946939 140.016327-415.346938 27.167347-23.510204 67.918367-53.289796 108.146938-43.885715 39.706122 9.404082 62.171429 53.289796 75.755102 85.681633 7.836735 18.808163 21.420408 53.289796 21.420409 75.232653 0 9.404082-1.044898 25.077551-2.089796 43.363265-1.567347 24.032653-3.134694 53.812245-3.134694 76.277551 0.522449 124.865306-102.922449 235.62449-235.62449 251.820409-5.746939 0-12.016327 0.522449-17.763265 0.522449z m145.763265-493.191837c-15.673469 0-37.616327 12.016327-65.306122 35.52653-109.191837 94.040816-149.420408 213.681633-125.910205 377.730613 2.612245 20.37551 12.016327 42.840816 58.514286 37.093877 111.804082-13.583673 199.053061-106.057143 198.530612-210.02449 0-24.032653 1.567347-54.857143 3.134694-79.412244 1.044898-17.240816 2.089796-32.391837 2.089796-40.751021 0-9.926531-7.314286-33.436735-17.763265-58.514286v-0.522449c-15.673469-36.571429-31.346939-57.469388-47.020408-61.12653h-6.269388zM512 382.432653c-11.493878 0-20.897959-9.404082-20.897959-20.897959V213.681633c0-11.493878 9.404082-20.897959 20.897959-20.89796s20.897959 9.404082 20.897959 20.89796v147.853061c0 11.493878-9.404082 20.897959-20.897959 20.897959z" fill="#333333" /><path d="M425.795918 467.069388c-5.22449 0-10.44898-2.089796-14.628571-6.269388-8.359184-8.359184-8.359184-21.420408 0-29.779592l84.636735-84.636735c8.359184-8.359184 21.420408-8.359184 29.779591 0 8.359184 8.359184 8.359184 21.420408 0 29.779592L440.42449 461.322449c-4.179592 3.657143-9.404082 5.746939-14.628572 5.746939z" fill="#333333" /><path d="M598.204082 467.069388c-5.22449 0-10.44898-2.089796-14.628572-6.269388L498.416327 376.163265c-8.359184-8.359184-8.359184-21.420408 0-29.779592 8.359184-8.359184 21.420408-8.359184 29.779591 0l84.636735 84.636735c8.359184 8.359184 8.359184 21.420408 0 29.779592-3.657143 4.179592-9.404082 6.269388-14.628571 6.269388z" fill="#333333" /></svg>