<?xml version="1.0" standalone="no"?><!DOCTYPE svg PUBLIC "-//W3C//DTD SVG 1.1//EN" "http://www.w3.org/Graphics/SVG/1.1/DTD/svg11.dtd"><svg class="icon" width="200px" height="173.41px" viewBox="0 0 1181 1024" version="1.1" xmlns="http://www.w3.org/2000/svg"><path d="M599.437391 355.918769c-16.147692-144.068923-51.475692-246.902154-102.912-297.747692-26.939077-26.269538-56.832-38.833231-92.750769-37.651692h-4.135385L330.20416 23.473231c-77.705846 4.214154-142.926769 25.206154-194.363077 64.039384-41.275077 31.113846-73.570462 72.900923-96.886154 124.928C-1.177994 302.710154 0.003545 391.246769 0.003545 392.428308v0.630154c0 128.512 15.556923 249.856 45.48923 350.916923 27.529846 93.892923 65.220923 166.242462 109.449847 210.471384 28.120615 28.120615 57.462154 42.456615 86.173538 42.456616 26.899692 0 47.261538-11.382154 67.584-36.470154 19.731692-24.536615 35.84-59.195077 52.617846-96.256 29.932308-64.590769 63.448615-138.082462 129.260308-172.819693 34.067692-17.92 93.302154-56.162462 110.670769-112.955076a11.067077 11.067077 0 0 0 1.181539-4.214154c3.584-8.979692 5.947077-19.140923 5.947076-28.711385 0.630154-32.846769 0-107.598769-8.979692-189.518769z m581.474461-263.089231C1179.10016 79.163077 1153.972775 33.713231 893.758622 19.377231c-43.716923-2.363077-70.577231-4.214154-114.215385-4.214154-32.137846 0-88.615385-5.356308-137.058462-11.303385-48.364308-5.907692-108.307692-13.548308-83.88923 49.467077 19.022769 49.388308 37.809231 98.855385 56.398769 148.401231 11.972923 43.677538 20.913231 93.892923 27.490461 150.646154 7.758769 68.804923 8.979692 117.799385 8.979693 157.302154v6.537846c0 11.972923 10.161231 22.173538 22.173538 21.543384 49.624615-1.772308 130.363077-13.784615 229.100308-71.758769 72.940308-43.638154 145.959385-110.040615 200.388923-182.941538 54.429538-72.979692 83.101538-142.296615 77.784615-190.148923z" fill="#879197" /></svg>