<?xml version="1.0" standalone="no"?><!DOCTYPE svg PUBLIC "-//W3C//DTD SVG 1.1//EN" "http://www.w3.org/Graphics/SVG/1.1/DTD/svg11.dtd"><svg class="icon" width="200px" height="200.00px" viewBox="0 0 1024 1024" version="1.1" xmlns="http://www.w3.org/2000/svg"><path d="M458.437081 141.784615c23.315692 0.078769 44.583385 8.774892 60.8256 23.047877A92.144246 92.144246 0 0 1 580.37185 141.784615h357.612308A69.632 69.632 0 0 1 1008.246311 204.8a67.741538 67.741538 0 0 1-12.288 44.425846 87.276308 87.276308 0 0 1-20.795077 17.959385 403.298462 403.298462 0 0 0-92.947692 84.440615 398.257231 398.257231 0 0 0-46.316308 96.098462 135.168 135.168 0 0 1-84.755692 85.385846l-139.579077 51.672615a87.906462 87.906462 0 0 1-31.192615 5.986462 92.616862 92.616862 0 0 1-38.250339-8.349539A92.475077 92.475077 0 0 1 490.574927 630.153846l-21.535508 8.018708c28.293908 85.102277-130.851446 225.0752-160.578954 242.782523a107.126154 107.126154 0 0 1-54.823384 14.493538 132.332308 132.332308 0 0 1-28.987077-3.465846 149.976615 149.976615 0 0 1-89.481846-69.001846 157.538462 157.538462 0 0 1-4.253539-7.514585L109.016773 831.488a68.371692 68.371692 0 0 1-40.644923 13.548308A69.001846 69.001846 0 0 1 0.000158 776.664615v-252.061538C-0.173135 313.501538 170.740342 142.1312 381.873388 141.784615h76.563693z m-48.695139 518.364554L320.748465 693.169231A208.896 208.896 0 0 0 252.061696 726.882462l-69.190892 50.601353c1.732923 4.489846 3.796677 8.853662 6.175507 13.044185a85.385846 85.385846 0 0 0 50.727385 40.329846 47.576615 47.576615 0 0 0 36.233846-4.411077c55.138462-33.193354 135.294031-138.539323 133.7344-166.2976zM458.437081 204.8h-76.563693C205.839911 204.973292 63.188834 347.640123 63.015542 523.657846v252.061539a5.041231 5.041231 0 0 0 2.835692 4.726153 4.411077 4.411077 0 0 0 5.671385 0L213.937388 677.415385a266.870154 266.870154 0 0 1 87.591385-44.11077l166.990769-63.015384a29.617231 29.617231 0 0 0 19.219692-27.726769V234.417231A29.617231 29.617231 0 0 0 458.437081 204.8z m479.547077 0h-357.612308a29.617231 29.617231 0 0 0-29.617231 29.617231v263.719384c0 9.735877 4.852185 18.825846 12.918154 24.260923 7.876923 5.671385 18.053908 6.9632 27.096615 3.465847l140.209231-51.987693a73.728 73.728 0 0 0 46.316308-46.00123 429.449846 429.449846 0 0 1 54.193231-111.852308 449.299692 449.299692 0 0 1 106.496-100.194462l7.246769-5.04123a7.246769 7.246769 0 0 0-7.246769-5.986462z" fill="#000000" /></svg>