<?xml version="1.0" standalone="no"?><!DOCTYPE svg PUBLIC "-//W3C//DTD SVG 1.1//EN" "http://www.w3.org/Graphics/SVG/1.1/DTD/svg11.dtd"><svg class="icon" width="200px" height="168.70px" viewBox="0 0 1214 1024" version="1.1" xmlns="http://www.w3.org/2000/svg"><path d="M615.693274 365.605926c-16.57363-147.986963-52.830815-253.610667-105.66163-305.834667-27.685926-27.003259-58.405926-39.898074-95.269925-38.684444h-4.28563l-71.300741 3.034074C259.341274 28.444444 192.364089 49.98637 139.533274 89.884444c-42.401185 31.93363-75.58637 74.903704-99.555555 128.341334C-1.209837 310.954667 0.003793 401.863111 0.003793 403.076741v0.64474c0 132.020148 15.966815 256.682667 46.72474 360.485926 28.254815 96.44563 66.977185 170.742519 112.412445 216.177778 28.899556 28.86163 59.012741 43.614815 88.519111 43.614815 27.648 0 48.545185-11.681185 69.404444-37.470815 20.29037-25.182815 36.864-60.795259 54.082371-98.872889 30.72-66.332444 65.156741-141.842963 132.74074-177.493333 35.00563-18.432 95.838815-57.723259 113.664-116.053333a11.377778 11.377778 0 0 0 1.21363-4.323556c3.716741-9.216 6.144-19.64563 6.144-29.468444 0.644741-33.754074 0-110.554074-9.216-194.673778z m597.295407-270.222222c-1.85837-14.108444-27.685926-60.795259-294.949925-75.510519C873.134459 17.445926 845.562311 15.54963 800.695941 15.54963c-32.995556 0-91.022222-5.499259-140.743111-11.605334-49.682963-6.068148-111.274667-13.918815-86.20563 50.782815a16572.340148 16572.340148 0 0 1 57.950815 152.462222c12.288 44.828444 21.504 96.407704 28.254815 154.737778 7.964444 70.656 9.216 120.983704 9.216 161.564445v6.712888c0 12.288 10.42963 22.755556 22.755555 22.110815 50.972444-1.820444 133.916444-14.108444 235.330371-73.690074 74.94163-44.828444 149.921185-113.019259 205.824-187.922963 55.940741-74.94163 85.409185-146.166519 79.909925-195.318518z" fill="#2E323A" /></svg>