<?xml version="1.0" standalone="no"?><!DOCTYPE svg PUBLIC "-//W3C//DTD SVG 1.1//EN" "http://www.w3.org/Graphics/SVG/1.1/DTD/svg11.dtd"><svg class="icon" width="200px" height="199.80px" viewBox="0 0 1025 1024" version="1.1" xmlns="http://www.w3.org/2000/svg"><path d="M1021.134933 251.733333c-8.533333-34.133333-34.133333-59.733333-72.533333-81.066666-89.6-46.933333-247.466667-51.2-337.066667-21.333334-21.333333 8.533333-42.666667 8.533333-59.733333 4.266667-25.6-4.266667-46.933333-12.8-46.933333-12.8-170.666667-81.066667-302.933333-72.533333-401.066667 21.333333C-7.131733 273.066667-7.131733 435.2 5.668267 601.6c0 25.6 4.266667 51.2 4.266666 72.533333 4.266667 102.4 8.533333 187.733333 59.733334 226.133334 25.6 25.6 55.466667 38.4 93.866666 38.4 81.066667 0 170.666667-51.2 243.2-132.266667 68.266667-76.8 128-98.133333 192-119.466667 81.066667-25.6 162.133333-55.466667 234.666667-192 149.333333-93.866667 209.066667-174.933333 187.733333-243.2z m-853.333333-29.866666C206.2016 183.466667 253.134933 170.666667 300.068267 170.666667c59.733333 0 119.466667 21.333333 162.133333 42.666666 0 0 12.8 4.266667 25.6 12.8-21.333333 64-38.4 174.933333 17.066667 281.6h-21.333334c-110.933333 12.8-226.133333 21.333333-311.466666 89.6-34.133333 29.866667-59.733333 55.466667-76.8 81.066667v-4.266667c0-25.6 0-51.2-4.266667-76.8-12.8-183.466667-4.266667-294.4 76.8-375.466666z m405.333333 384c-68.266667 21.333333-145.066667 46.933333-226.133333 140.8C278.734933 827.733333 206.2016 853.333333 163.534933 853.333333c-12.8 0-21.333333-4.266667-29.866666-8.533333-4.266667-21.333333-12.8-93.866667 93.866666-179.2 64-51.2 162.133333-59.733333 260.266667-68.266667 51.2-4.266667 106.666667-8.533333 162.133333-21.333333-21.333333 12.8-46.933333 21.333333-76.8 29.866667z m196.266667-166.4c-51.2 34.133333-110.933333 46.933333-170.666667 59.733333-68.266667-98.133333-38.4-213.333333-21.333333-260.266667 17.066667 0 38.4-4.266667 59.733333-8.533333 76.8-21.333333 209.066667-21.333333 273.066667 17.066667 12.8 4.266667 25.6 17.066667 29.866667 29.866666 0 0 12.8 46.933333-170.666667 162.133334z" /></svg>