<?xml version="1.0" standalone="no"?><!DOCTYPE svg PUBLIC "-//W3C//DTD SVG 1.1//EN" "http://www.w3.org/Graphics/SVG/1.1/DTD/svg11.dtd"><svg class="icon" width="200px" height="151.14px" viewBox="0 0 1355 1024" version="1.1" xmlns="http://www.w3.org/2000/svg"><path d="M352.79956768 933.864669h-4.96668082C200.81914671 909.0312674 136.84830331 745.72681506 158.10569549 447.72598996 169.82706059 284.81887219 248.89661332 90.125 559.21480581 90.125c27.41607586 0 66.75218454 10.92669681 99.3336081 62.97750742 73.90420422 119.20032971 67.94418823 401.50644489 30.99208611 475.41064993-26.62140674 52.64681204-78.47355047 77.48021448-120.59100111 96.1549324-29.80008243 13.90670481-58.20949429 27.01874131-63.9708434 44.30278949-22.84672961 68.3415228-122.18033853 149.3977467-133.5043699 158.93377378a29.80008243 29.80008243 0 0 1-18.67471793 5.96001599zM559.21480581 149.72516486C343.85954286 149.72516486 232.0098997 249.05877295 217.50719265 452.29533621c-12.51603425 174.23114914 0 385.41440039 127.54435309 419.78382907 31.78675442-27.01874131 90.39358328-82.84422903 103.50561978-121.78300396s55.2294863-60.99083543 95.3602641-79.4668873c36.95210211-17.08538049 75.09620792-34.96543012 91.98292154-68.93752341 26.42273987-52.84547974 36.15743381-313.29820047-28.40941186-417.20115564C586.03488024 149.72516486 565.96949092 149.72516486 559.21480581 149.72516486zM800.79414092 691.0933302a69.33485879 69.33485879 0 0 1-47.68013205-14.70137393c-6.75468512-6.15868369-27.217409-29.60141556-1.78800512-67.54685367 32.78009043-49.07080261 16.0920445-164.4964552-1.39066974-286.67679373l-3.37734339-22.84672962a149.5964144 149.5964144 0 0 1 28.60807956-117.21365771c53.44148117-68.93752423 158.93377295-81.25489161 162.70845007-81.85089386h3.37734339c108.86963434 0 235.02331769 62.38150598 240.38733225 64.96418023 54.03748261 27.01874131 83.83756586 63.57350967 88.40691128 108.86963435 11.52269824 113.04164603-148.80174527 238.40066025-244.36067706 313.89420272l-24.43606706 19.86672162c-59.40149799 46.88546292-143.43773071 83.2415636-200.45522212 83.2415636z m142.24572702-531.03746997c-11.52269824 1.58933743-85.82423785 13.70803793-120.78966714 59.60016486a91.18825241 91.18825241 0 0 0-16.68804675 72.11619992l4.17201168 22.05206131c19.86672162 139.06705133 35.76009924 248.73135562-1.78800512 317.86754671a337.73426834 337.73426834 0 0 0 156.74843408-70.72552935l24.83340244-19.86672162c74.69887336-59.60016486 230.05663687-180.58849969 221.91128118-261.04872299-2.38400656-23.84006561-19.86672162-43.90545493-55.82548856-61.38816998-1.986672-0.39733457-118.20699371-57.81215973-212.57392181-58.60682886zM383.79165297 717.3174032a29.60141556 29.60141556 0 0 1-18.67471792-6.55601825c-99.33360809-79.46688648-60.59350086-195.48854133-26.82007443-246.14868137a29.80008243 29.80008243 0 0 1 49.66680404 32.97875812c-2.78134113 4.37067856-65.75884853 102.51228379 14.50270706 166.68179489a29.80008243 29.80008243 0 0 1-18.67471875 53.04414661z" /></svg>