<?xml version="1.0" standalone="no"?><!DOCTYPE svg PUBLIC "-//W3C//DTD SVG 1.1//EN" "http://www.w3.org/Graphics/SVG/1.1/DTD/svg11.dtd"><svg class="icon" width="200px" height="200.00px" viewBox="0 0 1024 1024" version="1.1" xmlns="http://www.w3.org/2000/svg"><path d="M680.721067 233.352533l-3.822934 1.911467-3.2256 2.798933c-25.088 21.674667-34.167467 91.511467-34.594133 187.8016l0.034133 20.872534c0.682667 105.898667 9.898667 164.386133 47.872 174.762666l4.437334 1.194667h4.5568c58.112 0 152.064-51.080533 240.981333-155.4944 50.7392-59.562667 60.1088-139.264 22.647467-181.418667-34.747733-39.082667-225.4336-79.1552-278.869334-52.4288z m228.0448 98.133334l-0.187734-0.3584c3.959467 4.437333 6.724267 16.059733 4.949334 31.061333-2.321067 19.7632-11.844267 41.1648-28.5184 60.757333-43.963733 51.575467-87.4496 87.4496-128.290134 109.6704l-4.5056 2.389334c-11.7248 6.109867-22.613333 10.717867-31.863466 13.9264l-4.898134 1.570133-0.290133-1.518933c-0.853333-4.522667-1.672533-9.693867-2.423467-15.428267-3.498667-26.402133-5.410133-62.498133-5.410133-100.590933 0-38.1952 1.928533-75.537067 5.461333-104.277334l0.6656-5.290666c1.621333-12.066133 3.498667-22.033067 5.495467-29.3888l0.426667-1.536c17.6128-2.082133 55.210667 1.1264 96.768 9.847466 24.1664 5.085867 47.786667 11.52 66.389333 18.056534 8.874667 3.1232 16.264533 6.144 21.674667 8.823466l4.215466 2.184534a1.024 1.024 0 0 0 0.341334 0.1024zM363.178667 203.963733c-107.861333 0-198.007467 24.234667-254.122667 80.349867-81.749333 81.749333-84.036267 229.0688-14.3872 441.002667l7.662933 22.7328 2.423467 3.652266c53.248 80.2816 130.474667 97.757867 217.890133 50.295467l13.0048-7.168c87.6544-49.2544 192.682667-123.972267 231.714134-159.300267 16.0768-14.5408 20.906667-70.7584 22.9888-174.967466l0.699733-43.093334c1.536-122.436267-2.6112-168.482133-31.317333-182.8352-32.4608-16.2304-118.152533-30.6688-196.5568-30.6688z m6.0928 68.3008c56.900267 0.6144 117.486933 9.591467 147.182933 18.6368l1.467733 0.4608 0.904534 6.656c0.853333 7.1168 1.5872 15.940267 2.184533 26.197334l0.6144 12.322133c1.109333 25.7024 1.4336 57.6 0.989867 92.245333l-0.119467 8.704a2293.486933 2293.486933 0 0 1-4.471467 113.834667l-1.092266 14.626133a549.376 549.376 0 0 1-1.911467 19.524267l-0.785067 5.802667-1.655466 1.4336c-43.4688 36.539733-143.36 106.325333-222.498134 149.2992l-4.130133 2.184533c-53.248 27.5456-89.9072 19.268267-121.924267-26.692267l-4.642133-13.943466C97.211733 514.2528 98.986667 390.912 157.3376 332.578133c40.4992-40.482133 114.346667-60.347733 205.841067-60.347733l6.0928 0.034133z" fill="#444444" /><path d="M375.466667 341.333333a34.133333 34.133333 0 1 1-0.290134 68.266667H375.466667c-93.866667 1.058133-135.253333 30.5152-136.874667 89.2928l-0.0512 3.6352h-68.266667c0-102.229333 72.5504-157.917867 198.1952-161.0752l6.229334-0.119467v0.034134z" fill="#00B386" /></svg>