<?xml version="1.0" standalone="no"?><!DOCTYPE svg PUBLIC "-//W3C//DTD SVG 1.1//EN" "http://www.w3.org/Graphics/SVG/1.1/DTD/svg11.dtd"><svg class="icon" width="200px" height="200.00px" viewBox="0 0 1024 1024" version="1.1" xmlns="http://www.w3.org/2000/svg"><path d="M963 288L768 64 512 224 256 64 64 288 32 608l480 384 480-384-29-320zM512 828.1L166.3 551.5l21.1-210.7 94.2-109.9 162.6 101.6 67.8 42.4 67.8-42.4 163.4-102.1 96.1 110.4 19 210.2L512 828.1zM640 420.1c-29.4-19.6-69.1-11.7-88.8 17.8L512 496.7l-39.2-58.9c-19.6-29.4-59.3-37.4-88.8-17.8-29.4 19.6-37.4 59.3-17.8 88.8l92.5 138.7c25.3 38 81.2 38 106.5 0l92.5-138.7c19.7-29.4 11.7-69.1-17.7-88.7z" /></svg>