<?xml version="1.0" standalone="no"?><!DOCTYPE svg PUBLIC "-//W3C//DTD SVG 1.1//EN" "http://www.w3.org/Graphics/SVG/1.1/DTD/svg11.dtd"><svg class="icon" width="200px" height="200.00px" viewBox="0 0 1024 1024" version="1.1" xmlns="http://www.w3.org/2000/svg"><path d="M512 0C229.674667 0 0 229.674667 0 512c0 282.282667 229.674667 512 512 512 282.282667 0 512-229.717333 512-512C1024 229.696 794.282667 0 512 0zM512 981.312C253.226667 981.312 42.688 770.773333 42.688 512 42.688 253.205333 253.226667 42.666667 512 42.666667s469.312 210.538667 469.312 469.333333C981.312 770.773333 770.773333 981.312 512 981.312zM273.344 496.917333c-22.208-22.186667-34.410667-51.669333-34.410667-83.050667 0-31.381333 12.202667-60.864 34.410667-83.008 16.106667-16.128 37.525333-25.002667 60.309333-25.002667 22.784 0 44.202667 8.874667 60.330667 25.002667 11.456 11.456 17.770667 26.688 17.770667 42.858667 0 16.192-6.293333 31.402667-17.770667 42.88-15.765333 15.765333-43.2 15.765333-58.944 0-10.56-10.538667-10.538667-27.733333 0-38.293333 3.008-2.986667 6.976-4.650667 11.221333-4.650667 0.021333 0 0.021333 0 0.021333 0 4.202667 0 8.170667 1.642667 11.157333 4.629333 8.341333 8.362667 21.802667 8.384 30.186667 0.042667 8.362667-8.341333 8.384-21.845333 0.042667-30.186667-11.029333-11.072-25.749333-17.194667-41.365333-17.194667-0.021333 0-0.021333 0-0.042667 0-15.637333 0-30.336 6.08-41.408 17.152-27.2 27.221333-27.2 71.488 0 98.666667 31.829333 31.893333 87.466667 31.872 119.296 0.021333 19.541333-19.498667 30.293333-45.461333 30.293333-73.066667 0-27.584-10.752-53.525333-30.293333-73.045333-24.170667-24.192-56.32-37.525333-90.496-37.525333s-66.325333 13.333333-90.496 37.504c-30.272 30.250667-46.912 70.464-46.912 113.216 0 42.773333 16.661333 82.986667 46.912 113.216 4.16 4.16 9.621333 6.272 15.082667 6.272 5.482667 0 10.944-2.112 15.104-6.229333C281.685333 518.762667 281.685333 505.28 273.344 496.917333zM841.258667 300.672c-24.213333-24.192-56.362667-37.525333-90.496-37.525333-34.218667 0-66.346667 13.333333-90.538667 37.504-30.208 30.250667-46.890667 70.464-46.890667 113.216 0 42.773333 16.682667 82.986667 46.890667 113.216 4.16 4.16 9.621333 6.272 15.082667 6.272 5.482667 0 10.986667-2.112 15.125333-6.272 8.362667-8.362667 8.362667-21.845333 0-30.208-22.208-22.186667-34.389333-51.669333-34.389333-83.050667s12.181333-60.864 34.389333-83.050667c16.128-16.128 37.525333-25.002667 60.330667-25.002667 22.72 0 44.16 8.874667 60.288 25.002667 23.594667 23.658667 23.594667 62.122667-0.042667 85.781333-15.701333 15.744-43.136 15.786667-58.901333 0-10.56-10.538667-10.56-27.733333 0-38.293333 5.994667-5.994667 16.469333-5.994667 22.442667 0 8.341333 8.362667 21.824 8.341333 30.208 0.021333s8.384-21.845333 0-30.186667c-22.122667-22.165333-60.714667-22.144-82.837333 0-27.157333 27.221333-27.157333 71.488-0.021333 98.666667 15.936 15.957333 37.12 24.746667 59.690667 24.746667 22.549333 0 43.754667-8.768 59.669333-24.725333C881.536 406.506667 881.536 340.949333 841.258667 300.672zM512 669.034667c-89.130667 0-172.885333 34.752-235.904 97.749333-8.362667 8.341333-8.362667 21.802667 0 30.165333s21.824 8.362667 30.186667 0c54.954667-54.933333 128-85.205333 205.717333-85.205333 77.717333 0 150.784 30.272 205.76 85.205333 4.138667 4.138667 9.621333 6.250667 15.082667 6.250667 5.418667 0 10.88-2.090667 15.082667-6.250667 8.362667-8.362667 8.362667-21.824 0-30.165333C684.885333 703.786667 601.173333 669.034667 512 669.034667z" /></svg>