<?xml version="1.0" standalone="no"?><!DOCTYPE svg PUBLIC "-//W3C//DTD SVG 1.1//EN" "http://www.w3.org/Graphics/SVG/1.1/DTD/svg11.dtd"><svg class="icon" width="200px" height="200.00px" viewBox="0 0 1024 1024" version="1.1" xmlns="http://www.w3.org/2000/svg"><path d="M298.0352 177.800533c39.355733-88.081067 156.347733-123.170133 264.209067-105.454933 148.736 24.456533 271.701333 147.746133 313.668266 309.691733 36.9664 142.6944 17.578667 306.858667-46.08 416.477867-90.965333 156.672-306.449067 178.858667-433.1008 61.44-71.338667-66.2016-88.405333-202.103467-38.570666-278.818133a34.133333 34.133333 0 0 1 58.6752 34.781866l-1.4336 2.389334c-31.709867 48.8448-19.285333 147.968 27.7504 191.5904 95.624533 88.644267 259.447467 71.799467 327.6288-45.6704 54.391467-93.661867 71.6288-239.342933 39.048533-365.056-35.498667-136.9088-137.898667-239.616-258.6624-259.464534-80.810667-13.277867-166.9632 12.561067-190.805333 65.9456-35.4304 79.2576-5.239467 165.188267 57.890133 168.072534l3.293867 0.085333a34.133333 34.133333 0 1 1 0 68.266667c-124.535467 0-177.1008-144.384-123.511467-264.277334z" fill="#444444" /><path d="M252.603733 654.933333c28.910933-96.170667 89.770667-131.822933 161.28-96.375466a34.133333 34.133333 0 0 1-30.293333 61.166933c-29.7472-14.7456-47.872-4.113067-65.604267 54.869333-18.824533 62.5152-19.729067 166.912 3.857067 227.7376a34.133333 34.133333 0 1 1-63.6416 24.695467c-29.559467-76.202667-28.5184-195.959467-5.597867-272.093867z" fill="#444444" /><path d="M149.248 547.515733c49.117867-134.741333 160.8192-190.208 290.133333-173.431466a34.133333 34.133333 0 1 1-8.8064 67.6864c-99.720533-12.936533-179.933867 26.897067-217.1904 129.143466-29.917867 81.954133-34.730667 250.299733-8.721066 341.2992a34.133333 34.133333 0 0 1-65.6384 18.773334c-29.917867-104.704-24.695467-287.812267 10.222933-383.470934zM616.3456 303.189333a34.133333 34.133333 0 0 1 37.102933 57.309867l-15.633066 10.205867c-21.230933 14.08-34.440533 24.593067-42.0352 33.962666-5.154133 6.3488-5.410133 7.509333-4.437334 9.3184 1.792 3.345067 8.635733 5.768533 23.313067 4.949334 9.796267-0.529067 20.9408-2.645333 32.324267-5.8368l5.8368-1.723734c5.461333-1.6896 9.6768-3.242667 12.117333-4.232533a34.133333 34.133333 0 0 1 25.992533 63.1296c-5.546667 2.286933-14.404267 5.4272-25.480533 8.533333-15.8208 4.4544-31.658667 7.458133-47.0528 8.2944-38.280533 2.116267-70.263467-9.216-87.227733-40.874666-15.5648-29.047467-9.386667-58.7264 11.6224-84.599467 12.2368-15.069867 28.16-28.125867 51.712-44.0832l14.6432-9.6768 7.202133-4.676267z" fill="#444444" /><path d="M608.187733 529.1008c28.177067-0.512 56.866133 4.266667 93.678934 13.482667l8.021333 2.048-17.117867 66.082133c-35.0208-9.0624-61.149867-13.755733-83.370666-13.346133-21.879467 0.375467-28.842667 4.317867-30.037334 12.253866-2.389333 15.5648 43.2128 47.3088 102.485334 55.586134l4.829866 0.6144-7.8848 67.822933c-94.890667-11.042133-177.186133-67.498667-166.912-134.4 7.355733-47.803733 45.124267-69.239467 96.3072-70.144z" fill="#00B386" /></svg>