<?xml version="1.0" standalone="no"?><!DOCTYPE svg PUBLIC "-//W3C//DTD SVG 1.1//EN" "http://www.w3.org/Graphics/SVG/1.1/DTD/svg11.dtd"><svg class="icon" width="200px" height="200.00px" viewBox="0 0 1024 1024" version="1.1" xmlns="http://www.w3.org/2000/svg"><path d="M754.8 765.4H266.2c-29 0-52.5-21.4-52.5-47.8V391.2c0-26.3 23.6-47.8 52.5-47.8h488.6c29 0 52.5 21.4 52.5 47.8v326.4c0.1 26.4-23.5 47.8-52.5 47.8z m-488.6-406c-20.2 0-36.5 14.3-36.5 31.8v326.4c0 17.5 16.4 31.8 36.5 31.8h488.6c20.2 0 36.5-14.3 36.5-31.8V391.2c0-17.5-16.4-31.8-36.5-31.8H266.2zM688.1 359.4H331.9c-4.4 0-8-3.6-8-8v-52.8c0-29 23.6-52.5 52.5-52.5h267.1c29 0 52.5 23.6 52.5 52.5v52.8c0.1 4.4-3.5 8-7.9 8z m-348.2-16h340.2v-44.8c0-20.2-16.4-36.5-36.5-36.5H376.4c-20.2 0-36.5 16.4-36.5 36.5v44.8zM510.5 682.6c-25.6 0-46.4-20.8-46.4-46.4v-38.1H426c-25.6 0-46.4-20.8-46.4-46.4s20.8-46.4 46.4-46.4h38.1v-38.1c0-25.6 20.8-46.4 46.4-46.4 25.6 0 46.4 20.8 46.4 46.4v38.1H595c25.6 0 46.4 20.8 46.4 46.4s-20.8 46.4-46.4 46.4h-38.1v38.1c0 25.6-20.8 46.4-46.4 46.4zM426 521.2c-16.8 0-30.4 13.7-30.4 30.4S409.3 582 426 582h46.1c4.4 0 8 3.6 8 8v46.1c0 16.8 13.7 30.4 30.4 30.4s30.4-13.7 30.4-30.4V590c0-4.4 3.6-8 8-8H595c16.8 0 30.4-13.7 30.4-30.4s-13.7-30.4-30.4-30.4h-46.1c-4.4 0-8-3.6-8-8v-46.1c0-16.8-13.7-30.4-30.4-30.4s-30.4 13.7-30.4 30.4v46.1c0 4.4-3.6 8-8 8H426z" /></svg>