<?xml version="1.0" standalone="no"?><!DOCTYPE svg PUBLIC "-//W3C//DTD SVG 1.1//EN" "http://www.w3.org/Graphics/SVG/1.1/DTD/svg11.dtd"><svg class="icon" width="200px" height="200.00px" viewBox="0 0 1024 1024" version="1.1" xmlns="http://www.w3.org/2000/svg"><path d="M821.405839 905.869532 718.235085 802.696732l-103.220896 103.169731-103.20043-103.170754-103.210663 103.171778L305.421085 802.696732 202.220654 905.868509 61.60201 765.260098l316.15045-256.088516-56.060807-199.461821 0.068562-28.709879 106.975407-107.559715 81.945337 82.372056 81.944314-82.373079L702.4424 283.868209l-59.156308 225.051639 318.830489 256.269641L821.405839 905.869532zM511.813758 782.439362l103.201453 103.170754 103.22192-103.171778 103.170754 103.170754 119.28578-119.259174L627.069759 514.264577l59.433624-226.108714-93.880157-94.40102-81.942267 82.371032-81.944314-82.371032-92.663446 93.171006-0.050142 20.827351 58.072627 206.618824L82.981946 766.379595l119.239731 119.230522 103.201453-103.170754 103.182011 103.170754L511.813758 782.439362zM638.129652 501.388315 382.717542 501.388315l0 14.326287 255.411087 0L638.128629 501.388315zM465.404776 179.076538l-31.237445-31.208792 31.218002-31.172977 31.193443 31.193443L465.404776 179.076538zM454.439026 147.870816l10.957563 10.94733 10.92277-10.927887-10.942213-10.942213L454.439026 147.870816zM511.813758 179.077561l-31.195489-31.211862 31.200606-31.171953 31.197536 31.196513L511.813758 179.077561zM500.880755 147.872862l10.939143 10.94426 10.93505-10.92891-10.939143-10.939143L500.880755 147.872862zM558.255487 179.077561l-31.208792-31.209816 31.18935-31.174 31.208792 31.193443L558.255487 179.077561zM547.30918 147.870816l10.946306 10.946306 10.926864-10.926864-10.946306-10.94119L547.30918 147.870816z" /></svg>