<?xml version="1.0" standalone="no"?><!DOCTYPE svg PUBLIC "-//W3C//DTD SVG 1.1//EN" "http://www.w3.org/Graphics/SVG/1.1/DTD/svg11.dtd"><svg class="icon" width="200px" height="200.00px" viewBox="0 0 1024 1024" version="1.1" xmlns="http://www.w3.org/2000/svg"><path d="M491.52 835.584c-75.776 0-137.216-61.44-137.216-137.216v-6.144c0-2.048 38.912-104.448 38.912-169.984 0-65.536-38.912-169.984-38.912-169.984v-6.144c0-75.776 61.44-137.216 137.216-137.216s139.264 61.44 139.264 137.216c0 2.048 0 4.096-2.048 6.144 0 2.048-40.96 106.496-38.912 169.984 2.048 63.488 38.912 169.984 38.912 169.984v4.096c2.048 77.824-61.44 139.264-137.216 139.264z m-106.496-135.168c2.048 57.344 49.152 102.4 106.496 102.4 59.392 0 106.496-47.104 106.496-104.448-6.144-18.432-38.912-114.688-40.96-178.176-2.048-63.488 32.768-159.744 40.96-178.176-2.048-57.344-49.152-102.4-106.496-102.4-59.392 0-106.496 47.104-106.496 102.4 6.144 18.432 40.96 112.64 40.96 178.176s-34.816 161.792-40.96 180.224z" fill="#666666" /><path d="M491.52 692.224c-26.624 0-45.056-30.72-45.056-69.632 0-2.048 4.096-49.152 4.096-77.824 0-30.72-4.096-77.824-4.096-77.824 0-40.96 20.48-71.68 45.056-71.68s45.056 30.72 45.056 69.632c0 2.048-4.096 49.152-4.096 77.824s4.096 77.824 4.096 77.824c0 40.96-18.432 71.68-45.056 71.68z m0-266.24c-4.096 0-16.384 14.336-16.384 38.912 0 0 4.096 47.104 4.096 77.824s-4.096 77.824-4.096 79.872c0 22.528 10.24 38.912 16.384 38.912s16.384-14.336 16.384-38.912c0-2.048-2.048-49.152-4.096-77.824 0-30.72 4.096-77.824 4.096-79.872 0-24.576-12.288-38.912-16.384-38.912zM608.256 671.744c-2.048 0-6.144 0-8.192-2.048-6.144-4.096-8.192-14.336-4.096-20.48 0 0 45.056-69.632 45.056-116.736 0-38.912-30.72-73.728-53.248-88.064-8.192-4.096-10.24-14.336-6.144-20.48 4.096-8.192 14.336-10.24 20.48-6.144 28.672 16.384 69.632 59.392 69.632 114.688 0 57.344-47.104 131.072-49.152 133.12-4.096 2.048-10.24 6.144-14.336 6.144zM382.976 671.744c-6.144 0-10.24-4.096-14.336-8.192-2.048-4.096-36.864-77.824-36.864-133.12 0-51.2 22.528-92.16 47.104-110.592 6.144-6.144 16.384-4.096 22.528 2.048 6.144 6.144 4.096 16.384-2.048 22.528-12.288 10.24-34.816 40.96-34.816 86.016 0 49.152 32.768 118.784 32.768 120.832 4.096 8.192 0 16.384-8.192 20.48-2.048-2.048-4.096 0-6.144 0z" fill="#666666" /></svg>