<?xml version="1.0" standalone="no"?><!DOCTYPE svg PUBLIC "-//W3C//DTD SVG 1.1//EN" "http://www.w3.org/Graphics/SVG/1.1/DTD/svg11.dtd"><svg class="icon" width="200px" height="200.00px" viewBox="0 0 1024 1024" version="1.1" xmlns="http://www.w3.org/2000/svg"><path d="M512 998.975015c-149.307077 0-275.448123-120.7296-275.448123-263.632738 0-96.157538 51.424492-182.898215 133.4784-229.309046V155.183262c0-35.371323 17.258338-70.021908 47.348185-95.062647 26.797292-22.299569 61.2864-35.091692 94.621538-35.091692 33.335138 0 67.820308 12.788185 94.6176 35.087754 30.093785 25.0368 47.348185 59.691323 47.348185 95.066585l-0.003939 381.609353c0 27.1872-22.043569 49.230769-49.230769 49.23077s-49.230769-22.043569-49.230769-49.23077l0.003938-381.609353c0-13.252923-21.921477-31.6928-43.508184-31.6928-21.582769 0-43.508185 18.439877-43.508185 31.6928v381.601476c0 20.007385-12.106831 38.021908-30.629415 45.579816-62.475815 25.4976-102.848985 85.543385-102.848985 152.977723 0 87.989169 82.703754 165.1712 176.986585 165.1712 94.278892 0 176.986585-77.185969 176.986584-165.1712 0-27.392-6.470892-53.433108-19.235446-77.406523-12.776369-24.000985-3.678523-53.8112 20.322462-66.591508 24.004923-12.772431 53.815138-3.678523 66.591507 20.322462 20.133415 37.824985 30.779077 80.592738 30.779077 123.675569 0.007877 142.903138-126.133169 263.632738-275.440246 263.632738z" /></svg>