<?xml version="1.0" standalone="no"?><!DOCTYPE svg PUBLIC "-//W3C//DTD SVG 1.1//EN" "http://www.w3.org/Graphics/SVG/1.1/DTD/svg11.dtd"><svg class="icon" width="200px" height="200.00px" viewBox="0 0 1024 1024" version="1.1" xmlns="http://www.w3.org/2000/svg"><path d="M462.8 962c-141 0-255.6-114.7-255.6-255.6V234.5c0-40.9 33.3-74.1 74.1-74.1h363c40.9 0 74.1 33.3 74.1 74.1v471.9C718.5 847.3 603.8 962 462.8 962zM281.3 187.6c-25.8 0-46.9 21-46.9 46.9v471.9c0 125.9 102.4 228.4 228.4 228.4 125.9 0 228.4-102.4 228.4-228.4V234.5c0-25.8-21-46.9-46.9-46.9h-363z" fill="#41B3F9" /><path d="M563.9 734.8m-57.5 0a57.5 57.5 0 1 0 115 0 57.5 57.5 0 1 0-115 0Z" fill="#FFFF27" /><path d="M563.9 805.9c-39.2 0-71.1-31.9-71.1-71.1s31.9-71.1 71.1-71.1c39.2 0 71.1 31.9 71.1 71.1s-31.9 71.1-71.1 71.1z m0-114.9c-24.2 0-43.8 19.7-43.8 43.8 0 24.2 19.7 43.8 43.8 43.8 24.2 0 43.8-19.7 43.8-43.8 0-24.2-19.6-43.8-43.8-43.8zM767.3 748.4c-2.4 0-4.9-0.7-7.1-2-6.4-3.9-8.4-12.3-4.5-18.8 22.1-35.9 33.8-77.2 33.8-119.6V136.1c0-25.8-21-46.9-46.9-46.9h-363c-15 0-28.7 6.9-37.7 19-4.5 6.1-13 7.3-19.1 2.8-6.1-4.5-7.3-13-2.8-19.1C334 73.2 356.3 62 379.7 62h363c40.9 0 74.1 33.3 74.1 74.1V608c0 47.4-13.1 93.7-37.8 133.9-2.6 4.2-7.1 6.5-11.7 6.5z" fill="#41B3F9" /><path d="M592 490.4H333.7c-5.5 0-10-4.5-10-10V294.7c0-5.5 4.5-10 10-10H592c5.5 0 10 4.5 10 10v185.7c0 5.5-4.5 10-10 10z" fill="#FFFF27" /><path d="M588.4 504h-251c-15 0-27.3-12.2-27.3-27.3V298.3c0-15 12.2-27.3 27.3-27.3h251c15 0 27.3 12.2 27.3 27.3v178.4c-0.1 15.1-12.3 27.3-27.3 27.3zM337.3 298.3v178.4h251V298.3h-251z" fill="#41B3F9" /></svg>