<?xml version="1.0" standalone="no"?><!DOCTYPE svg PUBLIC "-//W3C//DTD SVG 1.1//EN" "http://www.w3.org/Graphics/SVG/1.1/DTD/svg11.dtd"><svg class="icon" width="200px" height="200.00px" viewBox="0 0 1024 1024" version="1.1" xmlns="http://www.w3.org/2000/svg"><path d="M736.5 122.6c-67.4 68-179.6 233.3-179.6 332 0 98.7 80.4 178.7 179.6 178.7 99.2 0 179.6-80 179.6-178.7 0-98.7-109.5-262.2-179.6-332zM521 457.6c0-42.1 17.2-94.4 42.8-147.8-53.6-85.1-114.7-162.6-164-211.6C290.3 208.8 108 477.3 108 637.7c0 160.4 130.6 290.5 291.8 290.5 151.2 0 275.6-114.5 290.3-261.2C593.4 645.9 521 560.2 521 457.6z m2.3 173.5c0 17.2-13.8 31.2-30.9 31.2H443v46.8c0 17.3-13.8 31.2-30.9 31.2h-30.9c-17.1 0-30.9-14-30.9-31.2v-46.8h-43.2c-17 0-30.9-14-30.9-31.2v-31.2c0-17.2 13.8-31.2 30.9-31.2h43.2v-46.8c0-17.2 13.8-31.2 30.9-31.2h30.9c17 0 30.9 14 30.9 31.2v46.8h49.4c17.1 0 30.9 14 30.9 31.2v31.2z" /></svg>