<?xml version="1.0" standalone="no"?><!DOCTYPE svg PUBLIC "-//W3C//DTD SVG 1.1//EN" "http://www.w3.org/Graphics/SVG/1.1/DTD/svg11.dtd"><svg class="icon" width="200px" height="200.00px" viewBox="0 0 1024 1024" version="1.1" xmlns="http://www.w3.org/2000/svg"><path d="M214.368 992c-64.272 0-149.984-8.128-168.448-22.16a34.72 34.72 0 0 1-13.296-26.592v-2.224c-2.96-201.696-6.656-506.096 280.752-622.08 44.336-17.728 76.8-14.784 96 8.864 14.032 16.992 19.952 43.584 19.952 87.92a33.248 33.248 0 1 1-66.496 0 137.696 137.696 0 0 0-3.696-41.376 99.52 99.52 0 0 0-20.688 6.656C102.032 476.32 96.848 726.768 99.072 918.864c41.376 6.656 132.992 12.56 164.016 5.168a95.28 95.28 0 0 0 72.4-59.84c27.344-61.328 29.552-156.624 28.8-233.472a34.112 34.112 0 0 1 32.512-33.984h0.736a32.96 32.96 0 0 1 33.248 32.512c0.736 82.752-2.224 187.664-34.72 260.8a163.36 163.36 0 0 1-118.208 97.6 330.896 330.896 0 0 1-63.488 4.352z" fill="#5F5F5F" /><path d="M808.912 992a322.096 322.096 0 0 1-62.8-4.432 163.36 163.36 0 0 1-118.208-97.6c-32.512-73.136-35.456-178.048-34.72-260.8a33.264 33.264 0 0 1 66.496 1.472c-0.736 76.096 1.472 171.408 28.8 233.472a96.48 96.48 0 0 0 72.4 59.84c30.288 7.392 122.64 0.736 164.016-5.168 2.224-192.096-2.96-442.544-239.376-537.856a189.616 189.616 0 0 0-20.688-6.656 170.448 170.448 0 0 0-3.696 41.376 33.248 33.248 0 1 1-66.496 0c0-44.336 5.904-70.928 19.952-87.92 19.2-23.648 50.976-26.592 96-8.864 287.392 116 283.712 420.384 280.752 622.08v2.224a34.72 34.72 0 0 1-13.296 26.592C959.68 983.872 873.184 992 808.912 992z" fill="#5F5F5F" /><path d="M518.08 450.464a33.6 33.6 0 0 1-33.248-34.304V66.304a33.264 33.264 0 1 1 66.496 0V416.16a34.128 34.128 0 0 1-33.248 34.304z" fill="#5F5F5F" /><path d="M316.768 588.896c-23.648 0-81.264-3.696-119.696-36.944a25.632 25.632 0 0 1 33.984-38.4c25.856 22.896 75.36 25.12 92.352 24.384a25.904 25.904 0 1 1 2.96 51.712 25.6 25.6 0 0 0-9.6-0.752z" fill="#5F5F5F" /><path d="M239.2 832.384a27.088 27.088 0 0 1-25.12-19.728c-14.032-51.312 2.208-155.52 4.432-167.36a25.04 25.04 0 0 1 29.552-22.096 26.432 26.432 0 0 1 20.688 31.584c-6.656 39.472-13.296 112.896-5.904 142.88a27.36 27.36 0 0 1-17.728 33.952 13.552 13.552 0 0 1-5.92 0.768z" fill="#5F5F5F" /><path d="M151.568 788.944a30.112 30.112 0 0 1-13.296-3.696 25.472 25.472 0 0 1-8.864-35.456c115.2-192.832 353.152-332.464 363.504-337.6a25.984 25.984 0 1 1 25.856 45.072c-2.224 1.472-236.416 138.16-345.024 319.904a27.024 27.024 0 0 1-22.176 11.776z" fill="#5F5F5F" /><path d="M723.952 596.096h-10.336a25.904 25.904 0 1 1 2.96-51.712c16.992 0.736 65.76-1.472 92.352-24.384a25.632 25.632 0 1 1 33.984 38.4c-36.96 34-95.328 37.696-118.96 37.696z" fill="#5F5F5F" /><path d="M801.52 828.08a26.96 26.96 0 0 1-7.392-0.768 26.528 26.528 0 0 1-17.728-32.688c8.128-28.896 0.736-99.6-5.904-137.6a26.032 26.032 0 0 1 20.688-30.4 25.424 25.424 0 0 1 29.552 21.296c2.224 11.408 18.464 111.76 4.432 161.184a24 24 0 0 1-23.648 18.976z" fill="#5F5F5F" /><path d="M884.256 791.152a25.104 25.104 0 0 1-22.16-12.56c-108.608-181.744-342.08-318.4-345.024-319.904a25.984 25.984 0 1 1 25.856-45.072c10.336 5.904 247.504 144.816 363.504 337.6a25.472 25.472 0 0 1-8.864 35.456 23.824 23.824 0 0 1-13.312 4.48z" fill="#5F5F5F" /></svg>