<?xml version="1.0" standalone="no"?><!DOCTYPE svg PUBLIC "-//W3C//DTD SVG 1.1//EN" "http://www.w3.org/Graphics/SVG/1.1/DTD/svg11.dtd"><svg class="icon" width="200px" height="200.00px" viewBox="0 0 1024 1024" version="1.1" xmlns="http://www.w3.org/2000/svg"><path d="M256 128v192a42.666667 42.666667 0 0 1-42.666667 42.666667H106.666667v-85.333334h64V128h85.333333zM405.333333 128v174.336l49.664 49.664-60.330666 60.330667-62.165334-62.165334A42.666667 42.666667 0 0 1 320 320V128h85.333333z" fill="#000000" /><path d="M554.666667 128v81.28c47.146667 8.213333 87.168 16.490667 123.456 29.653333 46.826667 17.024 86.293333 41.642667 129.557333 81.792 52.373333 48.554667 79.253333 113.749333 93.354667 174.741334C915.2 556.693333 917.333333 617.557333 917.333333 661.333333v149.333334c0 19.797333-10.325333 34.112-19.626666 42.581333-8.96 8.106667-19.456 13.44-28.437334 17.088-18.197333 7.424-41.152 12.373333-64.213333 15.850667-46.933333 7.104-105.28 9.813333-154.389333 9.813333-35.264 0-84.522667-2.666667-131.157334-12.842667-44.245333-9.642667-96.981333-28.245333-126.954666-68.224-43.093333-57.429333-40.725333-136.874667-28.608-185.28l10.346666-41.386666 82.773334 20.693333-10.346667 41.386667c-9.216 36.906667-6.826667 85.482667 14.08 113.386666 10.325333 13.76 36.010667 27.136 76.885333 36.053334 38.485333 8.405333 81.066667 10.88 112.981334 10.88 46.912 0 100.544-2.624 141.610666-8.853334 17.344-2.624 30.656-5.653333 39.722667-8.64V661.333333c0-41.557333-2.133333-94.826667-14.101333-146.645333-12.032-52.053333-33.152-98.858667-68.245334-131.413333-36.138667-33.493333-66.005333-51.541333-100.650666-64.128-36.394667-13.205333-79.146667-20.906667-144-31.722667A42.666667 42.666667 0 0 1 469.333333 245.333333V128h85.333334z" fill="#000000" /><path d="M106.666667 426.666667h106.666666a42.666667 42.666667 0 0 1 42.517334 46.08v0.277333l-0.085334 0.896a810.389333 810.389333 0 0 0-1.173333 17.642667 1608.853333 1608.853333 0 0 0-2.154667 48.362666c-1.173333 39.402667-1.109333 87.68 3.306667 127.36 0.917333 8.32 5.568 18.794667 16.853333 31.146667 11.264 12.309333 27.093333 24.256 45.525334 34.944 38.08 22.122667 77.696 33.685333 90.752 34.773333l42.517333 3.541334-7.082667 85.034666-42.517333-3.541333c-29.610667-2.474667-81.514667-19.861333-126.506667-46.016-23.146667-13.44-46.72-30.442667-65.664-51.157333-18.88-20.650667-35.136-47.253333-38.698666-79.296-5.077333-45.653333-4.992-98.709333-3.797334-139.306667 0.277333-9.066667 0.597333-17.621333 0.96-25.408H106.666667v-85.333333z" fill="#000000" /></svg>