<?xml version="1.0" standalone="no"?><!DOCTYPE svg PUBLIC "-//W3C//DTD SVG 1.1//EN" "http://www.w3.org/Graphics/SVG/1.1/DTD/svg11.dtd"><svg class="icon" width="200px" height="200.00px" viewBox="0 0 1024 1024" version="1.1" xmlns="http://www.w3.org/2000/svg"><path d="M512.000128 0C229.709273 0 0.000128 229.709145 0.000128 512S229.709273 1024 512.000128 1024 1024.000128 794.290855 1024.000128 512 794.354951 0 512.000128 0z m0 960.031984C264.95565 960.031984 63.968144 759.044478 63.968144 512S264.95565 63.968016 512.000128 63.968016 960.032112 264.955522 960.032112 512 759.044606 960.031984 512.000128 960.031984zM322.01512 293.933033v-54.180909a31.984008 31.984008 0 0 0-63.968016 0v54.116941c-36.909545 13.305347-63.648176 48.35982-63.648175 89.747127s26.738631 76.505747 63.648175 89.747126v311.268366a31.984008 31.984008 0 0 0 63.968016 0V473.363318c36.973513-13.241379 63.648176-48.295852 63.648176-89.747126s-26.674663-76.441779-63.648176-89.683159z m-31.984008 121.411295a31.664168 31.664168 0 1 1 0.063968-63.392304 31.664168 31.664168 0 0 1-0.063968 63.392304z m477.969016-121.411295v-54.180909a31.984008 31.984008 0 0 0-63.968016 0v54.116941c-36.973513 13.241379-63.648176 48.295852-63.648176 89.747127s26.674663 76.505747 63.648176 89.747126v311.268366a31.984008 31.984008 0 0 0 63.968016 0V473.363318c36.973513-13.241379 63.648176-48.295852 63.648176-89.747126s-26.674663-76.441779-63.648176-89.683159z m-31.984008 121.411295a31.664168 31.664168 0 1 1 0.063968-63.392304 31.664168 31.664168 0 0 1-0.063968 63.392304zM543.920168 551.02049V239.752124a31.984008 31.984008 0 0 0-63.968016 0V551.02049c-36.973513 13.241379-63.648176 48.295852-63.648176 89.747126s26.674663 76.505747 63.648176 89.747127v54.116941a31.984008 31.984008 0 0 0 63.968016 0v-54.116941c36.973513-13.241379 63.712144-48.295852 63.712144-89.747127s-26.738631-76.505747-63.712144-89.747126z m-31.984008 121.411294A31.664168 31.664168 0 1 1 512.000128 609.03948a31.664168 31.664168 0 0 1-0.063968 63.392304z" fill="#111111" /></svg>