<?xml version="1.0" standalone="no"?><!DOCTYPE svg PUBLIC "-//W3C//DTD SVG 1.1//EN" "http://www.w3.org/Graphics/SVG/1.1/DTD/svg11.dtd"><svg class="icon" width="200px" height="200.00px" viewBox="0 0 1024 1024" version="1.1" xmlns="http://www.w3.org/2000/svg"><path d="M510.810508 1022.103519c-216.386003 0-391.773077-176.821912-391.773077-394.867336q0-218.220099 391.773077-627.236183 391.773077 409.103421 391.773077 627.236183c0 218.045424-175.436982 394.867336-391.773077 394.867336zM223.668291 681.834877a336.525587 336.525587 0 0 0 212.667902 238.307827 34.523443 34.523443 0 0 0 44.180524-21.210644 34.935179 34.935179 0 0 0-20.94863-44.529877 267.004581 267.004581 0 0 1-168.649576-188.911979 34.610781 34.610781 0 1 0-67.25022 16.344673z" /></svg>