<?xml version="1.0" standalone="no"?><!DOCTYPE svg PUBLIC "-//W3C//DTD SVG 1.1//EN" "http://www.w3.org/Graphics/SVG/1.1/DTD/svg11.dtd"><svg class="icon" width="200px" height="200.00px" viewBox="0 0 1024 1024" version="1.1" xmlns="http://www.w3.org/2000/svg"><path d="M659.0489946738388 407.24279531602673V299.98641278671005a20.826482044527477 20.826482044527477 0 0 0-9.913405453195084-17.74416270193741l-67.51945478835809-41.36139334043156v-149.0759584747277a20.826482044527477 20.826482044527477 0 0 0-20.826482044527477-20.826482044527477h-183.9394894172667a20.826482044527477 20.826482044527477 0 0 0-20.826482044527477 20.826482044527477v149.11761143881682l-67.43614886017997 41.31974037634253a20.826482044527477 20.826482044527477 0 0 0-9.955058417284135 17.74416270193741v519.5790740468716a20.826482044527477 20.826482044527477 0 0 0 20.826482044527477 20.826482044527477h165.57053225399346a191.4786759173857 191.4786759173857 0 0 0 174.06773692816068 112.62961489680464c105.59026396575435 0 191.60363480965285-85.88841195163133 191.60363480965285-191.60363480965285 0.04165296408905497-94.55222848215477-145.70206838351427-315.56285593868034-171.65186501099546-354.1751536492344z m-261.37234965881987-294.61141500188575h142.28652532821178v109.33903073376926h-142.28652532821178v-109.33903073376926z m-77.34955431337505 686.1076244749133v-155.0323323394626h84.51386413669252a20.826482044527477 20.826482044527477 0 0 0 0-41.652964089054954h-84.51386413669252v-111.96316747137972h84.51386413669252a20.826482044527477 20.826482044527477 0 0 0 0-41.652964089054954h-84.51386413669252V311.6492427316456l78.39087841560145-48.02586759468036h140.28718305193712l78.34922545151238 48.02586759468036v98.38430117834781c-30.948152318167836 46.27644310294008-169.8191345910771 259.24804849027805-169.8191345910771 351.4677109834457 0 12.787459975339875 1.374547814938814 25.158390309789198 3.7904197321040023 37.321055823793245l-130.99857206007783-0.08330592817810994z m318.7701341735376 112.62961489680464a150.15893554104318 150.15893554104318 0 0 1-149.95067072059788-149.90901775650877c0-64.39548248167898 96.26000000980602-225.96733018312315 149.95067072059788-308.7317698280755 53.77397663896995 82.7644396449522 149.99232368468694 244.33628734639638 149.99232368468694 308.7317698280755a150.07562961286504 150.07562961286504 0 0 1-149.99232368468694 149.90901775650877z m20.826482044527477-38.570644746464886a20.826482044527477 20.826482044527477 0 0 1-20.826482044527477 20.826482044527477 132.28981394683856 132.28981394683856 0 0 1-132.1648550545714-132.1648550545714 20.826482044527477 20.826482044527477 0 0 1 41.652964089054954 0c0 49.900250978687836 40.611639986828585 90.51189096551643 90.51189096551643 90.51189096551643 11.57952401675728 0 20.826482044527477 9.330263955948311 20.826482044527477 20.826482044527477z" /></svg>