<?xml version="1.0" standalone="no"?><!DOCTYPE svg PUBLIC "-//W3C//DTD SVG 1.1//EN" "http://www.w3.org/Graphics/SVG/1.1/DTD/svg11.dtd"><svg class="icon" width="200px" height="200.00px" viewBox="0 0 1024 1024" version="1.1" xmlns="http://www.w3.org/2000/svg"><path d="M315.638352 869.030268c-114.1777-57.18883-169.16696-204.360086-97.980863-327.536029 4.19918-7.198594 1.599688-16.396798-5.398946-20.396016-7.198594-4.19918-16.396798-1.799649-20.396016 5.398946-79.984378 138.173013-18.99629 304.340558 110.378442 369.327865 7.398555 3.799258 16.396798 0.799844 20.196055-6.598711 3.599297-7.598516 0.599883-16.596758-6.798672-20.196055zM954.913493 737.655927c0-13.197422-10.59793-23.795352-23.595391-23.795353h-103.57977v-103.579769c0-12.997461-10.59793-23.595392-23.795352-23.595392h-26.794767c-7.998438-35.593048-21.19586-69.78637-39.792228-101.58016-0.199961-0.199961-256.749854-443.913298-256.949814-444.113259C442.013669-25.195079 397.222417 1.799649 379.425893 32.593634 378.026167 34.793204 121.676235 478.306581 117.677016 485.105253-15.097051 714.660418 139.072837 999.204843 394.822886 1022.200351h2.999414c9.598125 0.799844 19.396212 1.199766 29.194298 1.199766 12.7975 0 25.39504-0.599883 37.792619-1.999609h3.199375c62.587776-7.198594 123.575864-30.594025 176.965437-71.386058v50.390158c0 12.997461 10.59793 23.595392 23.795352 23.595392H803.94298c13.197422 0 23.795352-10.59793 23.795352-23.595392v-103.579769h103.57977c12.997461 0 23.595392-10.59793 23.595391-23.795353v-135.373559z m-309.939464 173.5661c-28.394454 24.995118-61.38801 45.391135-97.580942 59.788323h-1.399726c-36.992775 14.597149-76.984964 22.595587-118.976763 22.595586s-82.183948-7.998438-118.976762-22.595586h-0.999805c-177.965241-70.386253-267.547745-290.343292-163.168131-470.908026 0.999805-1.599688 256.949814-443.913298 256.949815-443.913298 1.999609-3.399336 14.197227-26.594806 27.194688-26.194884 10.797891 0.199961 21.595782 17.396602 27.194689 26.394845L711.960945 500.102324c15.796915 27.194689 27.394649 56.388987 34.793205 86.583089h-77.784808c-13.197422 0-23.795352 10.59793-23.795353 23.595392V713.860574h-103.579769c-12.197618 0-22.195665 9.398164-23.395431 21.395821 0 0.799844-0.199961 1.599688-0.199961 2.399532v135.373559c0 13.197422 10.59793 23.795352 23.595392 23.795353h103.579769v14.397188z m279.945323-44.591291h-103.379809c-13.197422 0-23.795352 10.59793-23.795352 23.795353V993.805897h-122.975982v-103.379808c0-13.197422-10.59793-23.795352-23.795352-23.795353h-103.379809V743.854716h103.379809c13.197422 0 23.795352-10.59793 23.795352-23.795353v-103.379808h122.975982v103.379808c0 13.197422 10.59793 23.795352 23.795352 23.795353h103.379809V866.630736z" /></svg>