<?xml version="1.0" standalone="no"?><!DOCTYPE svg PUBLIC "-//W3C//DTD SVG 1.1//EN" "http://www.w3.org/Graphics/SVG/1.1/DTD/svg11.dtd"><svg class="icon" width="200px" height="200.00px" viewBox="0 0 1024 1024" version="1.1" xmlns="http://www.w3.org/2000/svg"><path d="M975.339224 879.989602L639.987449 351.344368V85.333528h42.670267c11.553709 0 21.566301-4.231067 29.99808-12.674522 8.455129-8.438784 12.674522-18.442036 12.674521-29.99808s-4.219392-21.554626-12.674521-29.99808C704.226352 4.219392 694.21376 0 682.657716 0H341.330609c-11.563049 0-21.561631 4.219392-30.005085 12.665181-8.445789 8.441119-12.665181 18.442036-12.665181 29.99808s4.219392 21.559296 12.665181 29.99808c8.450459 8.443454 18.451376 12.674522 30.005085 12.674522h42.663262v266.0015L48.660776 879.982597c-24.882038 39.569352-29.661836 73.466925-14.32772 101.67404 15.334116 28.22346 46.558085 42.336358 93.664901 42.336358h768.015761c47.097476 0 78.316775-14.112898 93.643886-42.336358 15.343456-28.207115 10.563658-62.095348-14.31838-101.667035z m-700.673609-197.333054l181.333455-285.996328 13.330664-20.671986V85.326523h85.324187V375.988234l13.328329 20.671986 181.342795 285.996328H274.665615z" /></svg>