<?xml version="1.0" standalone="no"?><!DOCTYPE svg PUBLIC "-//W3C//DTD SVG 1.1//EN" "http://www.w3.org/Graphics/SVG/1.1/DTD/svg11.dtd"><svg class="icon" width="200px" height="200.00px" viewBox="0 0 1024 1024" version="1.1" xmlns="http://www.w3.org/2000/svg"><path d="M729.6 893.155556H358.4c-28.444444 0-54.044444-14.222222-68.266667-39.822223-19.911111-32.711111-18.488889-78.222222 1.422223-115.2l125.155555-228.977777c5.688889-8.533333 14.222222-14.222222 25.6-14.222223h204.8c9.955556 0 19.911111 5.688889 25.6 14.222223L796.444444 738.133333c19.911111 36.977778 21.333333 82.488889 1.422223 115.2-14.222222 25.6-39.822222 39.822222-68.266667 39.822223zM457.955556 550.4L341.333333 765.155556c-12.8 22.755556-9.955556 45.511111-2.844444 59.733333 7.111111 11.377778 17.066667 11.377778 19.911111 11.377778h371.2c2.844444 0 12.8 0 19.911111-11.377778 7.111111-12.8 9.955556-36.977778-2.844444-59.733333l-116.622223-214.755556H457.955556z" fill="#3FA6AD" /><path d="M473.6 550.4c-15.644444 0-28.444444-12.8-28.444444-28.444444V238.933333c0-15.644444 12.8-28.444444 28.444444-28.444444s28.444444 12.8 28.444444 28.444444v283.022223c0 17.066667-12.8 28.444444-28.444444 28.444444zM614.4 550.4c-15.644444 0-28.444444-12.8-28.444444-28.444444V238.933333c0-15.644444 12.8-28.444444 28.444444-28.444444s28.444444 12.8 28.444444 28.444444v283.022223c0 17.066667-12.8 28.444444-28.444444 28.444444z" fill="#3FA6AD" /><path d="M689.777778 267.377778H398.222222c-15.644444 0-28.444444-12.8-28.444444-28.444445s12.8-28.444444 28.444444-28.444444h291.555556c15.644444 0 28.444444 12.8 28.444444 28.444444s-12.8 28.444444-28.444444 28.444445z" fill="#DC4569" /></svg>