<?xml version="1.0" standalone="no"?><!DOCTYPE svg PUBLIC "-//W3C//DTD SVG 1.1//EN" "http://www.w3.org/Graphics/SVG/1.1/DTD/svg11.dtd"><svg class="icon" width="200px" height="200.00px" viewBox="0 0 1024 1024" version="1.1" xmlns="http://www.w3.org/2000/svg"><path d="M149.333333 853.333333h725.333334v85.333334H149.333333v-85.333334z" fill="#000000" /><path d="M768 672c0-102.144-78.357333-181.333333-170.666667-181.333333v-85.333334c143.317333 0 256 121.386667 256 266.666667S740.650667 938.666667 597.333333 938.666667v-85.333334c92.309333 0 170.666667-79.189333 170.666667-181.333333z" fill="#000000" /><path d="M457.28 214.848a149.333333 149.333333 0 1 1 211.2 211.2l-196.117333 196.096a42.666667 42.666667 0 0 1-60.330667 0l-150.848-150.848a42.666667 42.666667 0 0 1 0-60.330667l196.096-196.117333z m150.848 60.352a64 64 0 0 0-90.517333 0l-165.930667 165.930667 90.517333 90.496 165.930667-165.930667a64 64 0 0 0 0-90.496z" fill="#000000" /><path d="M758.976 184.682667l-120.682667 120.682666-60.330666-60.352 120.682666-120.682666 60.330667 60.352z" fill="#000000" /><path d="M683.541333 79.082667l120.682667 120.682666-60.330667 60.330667-120.682666-120.661333 60.330666-60.352zM230.997333 380.8a42.666667 42.666667 0 0 1 60.330667 0l211.2 211.178667a42.666667 42.666667 0 0 1 0 60.330666l-90.517333 90.517334a42.666667 42.666667 0 0 1-60.330667 0l-211.2-211.2a42.666667 42.666667 0 0 1 0-60.330667l90.517333-90.517333z m30.165334 90.496l-30.165334 30.165333 150.848 150.848 30.165334-30.165333-150.826667-150.848z" fill="#000000" /><path d="M682.666667 448a85.333333 85.333333 0 1 1-170.666667 0 85.333333 85.333333 0 0 1 170.666667 0z" fill="#FFFFFF" /><path d="M597.333333 405.333333a42.666667 42.666667 0 1 0 0 85.333334 42.666667 42.666667 0 0 0 0-85.333334z m-128 42.666667a128 128 0 1 1 256 0 128 128 0 0 1-256 0z" fill="#000000" /></svg>